<svg width="16" height="12" viewBox="0 0 16 12" fill="none" xmlns="http://www.w3.org/2000/svg">
<path d="M9.62851 6.11356C9.62851 7.04213 9.43431 7.86914 9.04592 8.59459C8.65752 9.32003 8.10395 9.887 7.3852 10.2955C6.66645 10.704 5.84279 10.9082 4.91422 10.9082C4.24904 10.9082 3.61288 10.7787 3.00574 10.5198C2.39859 10.2609 1.87627 9.91267 1.43877 9.47517C1.00127 9.03767 0.653059 8.51535 0.39413 7.9082C0.135202 7.30106 0.0057373 6.6649 0.0057373 5.99972C0.0057373 5.33454 0.135202 4.69838 0.39413 4.09124C0.653059 3.4841 1.00127 2.96177 1.43877 2.52427C1.87627 2.08677 2.39859 1.73856 3.00574 1.47963C3.61288 1.2207 4.24904 1.09124 4.91422 1.09124C6.19101 1.09124 7.28699 1.51981 8.20217 2.37695L6.86958 3.65597C6.34726 3.15151 5.69547 2.89927 4.91422 2.89927C4.36511 2.89927 3.8573 3.03767 3.39078 3.31445C2.92426 3.59124 2.55484 3.96735 2.28252 4.4428C2.0102 4.91825 1.87404 5.43722 1.87404 5.99972C1.87404 6.56222 2.0102 7.08119 2.28252 7.55664C2.55484 8.03209 2.92426 8.4082 3.39078 8.68499C3.8573 8.96177 4.36511 9.10017 4.91422 9.10017C5.28476 9.10017 5.62516 9.04883 5.93542 8.94615C6.24569 8.84347 6.50127 8.71512 6.70217 8.5611C6.90306 8.40709 7.07828 8.23186 7.22784 8.03544C7.37739 7.83901 7.48676 7.65374 7.55596 7.47963C7.62516 7.30552 7.67315 7.14035 7.69993 6.9841H4.91422V5.2966H9.54815C9.60172 5.57785 9.62851 5.85017 9.62851 6.11356ZM15.4343 5.2966V6.70285H14.0348V8.1024H12.6285V6.70285H11.229V5.2966H12.6285V3.89704H14.0348V5.2966H15.4343Z" fill="white"/>
</svg>
