<svg width="12" height="12" viewBox="0 0 12 12" fill="none" xmlns="http://www.w3.org/2000/svg">
<path d="M10.8568 2.73159C10.5577 3.16909 10.1961 3.54185 9.77197 3.84989C9.77644 3.91239 9.77867 4.00614 9.77867 4.13114C9.77867 4.7115 9.69385 5.29074 9.52421 5.86886C9.35456 6.44699 9.09675 7.00167 8.75077 7.53292C8.40479 8.06417 7.99295 8.53404 7.51528 8.94252C7.0376 9.351 6.4617 9.6769 5.7876 9.9202C5.11349 10.1635 4.39251 10.2852 3.62465 10.2852C2.41483 10.2852 1.30769 9.9615 0.303223 9.31417C0.459473 9.33203 0.63358 9.34096 0.825544 9.34096C1.83001 9.34096 2.7251 9.03292 3.51081 8.41685C3.04206 8.40792 2.62242 8.26395 2.25188 7.98493C1.88135 7.70592 1.62688 7.34989 1.48849 6.91685C1.63581 6.93917 1.77197 6.95034 1.89697 6.95034C2.08894 6.95034 2.27867 6.92578 2.46617 6.87667C1.96617 6.774 1.55211 6.52511 1.22398 6.13002C0.895857 5.73493 0.731794 5.27623 0.731794 4.75391V4.72712C1.03537 4.89676 1.36126 4.98828 1.70947 5.00167C1.41483 4.80525 1.18045 4.54855 1.00635 4.23159C0.832241 3.91462 0.745187 3.57087 0.745187 3.20034C0.745187 2.80748 0.843401 2.44364 1.03983 2.10882C1.58001 2.774 2.23737 3.30636 3.01193 3.70592C3.78648 4.10547 4.61572 4.32757 5.49965 4.37221C5.46394 4.20257 5.44608 4.03739 5.44608 3.87667C5.44608 3.27846 5.65702 2.76842 6.07889 2.34654C6.50077 1.92467 7.01081 1.71373 7.60903 1.71373C8.23403 1.71373 8.76081 1.94141 9.18938 2.39676C9.67599 2.30301 10.1336 2.12891 10.5622 1.87444C10.397 2.38784 10.08 2.78516 9.61126 3.06641C10.0264 3.02176 10.4416 2.91016 10.8568 2.73159Z" fill="white"/>
</svg>
